<mxfile host="app.diagrams.net" modified="2023-02-06T10:50:39.552Z" agent="5.0 (Windows NT 10.0; Win64; x64) AppleWebKit/537.36 (KHTML, like Gecko) Chrome/109.0.0.0 Safari/537.36" etag="X4g6wnRz6ShGM4SMvg4f" version="20.8.16" type="github">
  <diagram id="NMOIy1-YflUdFp0YAtX-" name="第 1 页">
    <mxGraphModel dx="858" dy="399" grid="1" gridSize="10" guides="1" tooltips="1" connect="1" arrows="1" fold="1" page="1" pageScale="1" pageWidth="827" pageHeight="1169" math="0" shadow="0">
      <root>
        <mxCell id="0" />
        <mxCell id="1" parent="0" />
        <mxCell id="mVJoJoQlIlBYF4ZiNvmV-1" value="" style="endArrow=classic;html=1;rounded=0;fillColor=#d5e8d4;strokeColor=#82b366;strokeWidth=5;" edge="1" parent="1">
          <mxGeometry relative="1" as="geometry">
            <mxPoint x="330" y="430" as="sourcePoint" />
            <mxPoint x="630" y="430" as="targetPoint" />
          </mxGeometry>
        </mxCell>
        <mxCell id="mVJoJoQlIlBYF4ZiNvmV-2" value="管道" style="edgeLabel;resizable=0;html=1;align=center;verticalAlign=middle;" connectable="0" vertex="1" parent="mVJoJoQlIlBYF4ZiNvmV-1">
          <mxGeometry relative="1" as="geometry" />
        </mxCell>
        <mxCell id="mVJoJoQlIlBYF4ZiNvmV-3" value="输入" style="edgeLabel;resizable=0;html=1;align=left;verticalAlign=bottom;" connectable="0" vertex="1" parent="mVJoJoQlIlBYF4ZiNvmV-1">
          <mxGeometry x="-1" relative="1" as="geometry">
            <mxPoint x="-30" y="10" as="offset" />
          </mxGeometry>
        </mxCell>
        <mxCell id="mVJoJoQlIlBYF4ZiNvmV-4" value="输出" style="edgeLabel;resizable=0;html=1;align=right;verticalAlign=bottom;" connectable="0" vertex="1" parent="mVJoJoQlIlBYF4ZiNvmV-1">
          <mxGeometry x="1" relative="1" as="geometry">
            <mxPoint x="30" y="10" as="offset" />
          </mxGeometry>
        </mxCell>
      </root>
    </mxGraphModel>
  </diagram>
</mxfile>
